<svg width="24" height="24" viewBox="0 0 24 24" fill="none" xmlns="http://www.w3.org/2000/svg">
<g>
<path d="M21.435 11.4765C21.4396 12.8623 21.1163 14.2295 20.4915 15.4665C19.7518 16.9462 18.6148 18.1907 17.2078 19.0608C15.8007 19.9308 14.1793 20.3919 12.525 20.3925C11.1417 20.396 9.77719 20.0727 8.5425 19.449L2.5665 21.435L4.5585 15.4665C3.93418 14.2294 3.61139 12.8622 3.6165 11.4765C3.61695 9.82238 4.07785 8.20103 4.9476 6.79403C5.81734 5.38702 7.06158 4.2499 8.541 3.51C9.77614 2.88608 11.1412 2.5628 12.525 2.5665H13.0485C15.2336 2.6869 17.2975 3.60912 18.8449 5.15656C20.3924 6.70401 21.3146 8.7679 21.435 10.953V11.4765Z" stroke="#303030" stroke-width="1.5" stroke-linecap="round" stroke-linejoin="round"/>
</g>
</svg>
